<svg xmlns="http://www.w3.org/2000/svg" fill="none" viewBox="0 0 110 31">
  <path fill="#fff" d="M25.273 4.512 22.598 5l-8.692 9.453 9.766 13.067 2.617.488v2.46h-9.492v-2.46l2.344-.274-.02-.02-7.637-10.605-4.453 4.844v5.508l3.184.547v2.46H0v-2.46l3.184-.547V5.059L0 4.512v-2.48h10.215v2.48l-3.184.547v12.226L18.203 4.883l.078-.098-2.129-.273v-2.48h9.121v2.48ZM38.191 27.46l3.184.547v2.46H31.16v-2.46l3.184-.547V12.363l-3.184-.547v-2.48h6.621l.332 2.695.04.371c.598-1.08 1.334-1.927 2.206-2.539.886-.612 1.895-.918 3.028-.918.403 0 .813.04 1.23.117.43.066.736.13.918.196l-.508 3.574-2.675-.156c-1.016-.065-1.869.17-2.559.703-.69.52-1.224 1.224-1.602 2.11V27.46Zm14.54-23.34V0h4.042v4.121H52.73Zm4.042 5.215V27.46l3.184.547v2.46H49.742v-2.46l3.184-.547V12.363l-3.184-.547v-2.48h7.031Zm16.395 21.543a17.63 17.63 0 0 1-3.984-.43c-1.237-.286-2.552-.729-3.946-1.328l-.039-5.02h2.91l.723 3.028a11.2 11.2 0 0 0 4.336.86c1.563 0 2.682-.3 3.36-.9.676-.598 1.015-1.34 1.015-2.226 0-.833-.345-1.536-1.035-2.11-.677-.585-1.914-1.08-3.711-1.483-2.552-.586-4.434-1.368-5.645-2.344-1.198-.99-1.796-2.305-1.796-3.945a5.11 5.11 0 0 1 .996-3.086c.664-.899 1.588-1.615 2.773-2.149s2.565-.8 4.14-.8c1.602 0 2.97.182 4.102.546 1.146.365 2.142.853 2.989 1.465l.195 4.824h-2.89l-.626-2.812c-.95-.703-2.207-1.055-3.77-1.055-1.197 0-2.174.28-2.93.84-.741.56-1.112 1.263-1.112 2.11 0 .481.11.91.332 1.288.234.404.703.756 1.406 1.055.703.3 1.543.566 2.52.8 2.942.69 4.993 1.57 6.152 2.637 1.172 1.068 1.758 2.383 1.758 3.946 0 1.784-.664 3.281-1.993 4.492-1.315 1.198-3.391 1.797-6.23 1.797Zm19.95-3.418 3.183.547v2.46H86.086v-2.46l3.183-.547V3.027l-3.183-.547V0h7.031v12.148a7.73 7.73 0 0 1 2.676-2.363c1.055-.56 2.226-.84 3.516-.84 2.265 0 4.023.677 5.273 2.032 1.25 1.354 1.875 3.437 1.875 6.25V27.46l3.184.547v2.46H99.426v-2.46l3.183-.547V17.188c0-3.412-1.491-5.118-4.472-5.118a5.642 5.642 0 0 0-2.89.762 6.221 6.221 0 0 0-2.13 2.031v12.598Z"/>
</svg>
